<svg xmlns="http://www.w3.org/2000/svg" viewBox="0 0 810 810" width="1080" height="1080"><g fill="#d9d9d9"><circle cx="405" cy="25" r="1.6"/><circle cx="456" cy="25" r="2.7"/><circle cx="506" cy="25" r="3.9"/><circle cx="557" cy="25" r="5.2"/><circle cx="608" cy="25" r="6.8"/><circle cx="658" cy="25" r="8.8"/><circle cx="709" cy="25" r="11.2"/><circle cx="759" cy="25" r="14.0"/><circle cx="810" cy="25" r="14.9"/><circle cx="380" cy="76" r="2.2"/><circle cx="430" cy="76" r="3.7"/><circle cx="481" cy="76" r="5.5"/><circle cx="532" cy="76" r="7.7"/><circle cx="582" cy="76" r="10.1"/><circle cx="633" cy="76" r="12.4"/><circle cx="683" cy="76" r="14.5"/><circle cx="734" cy="76" r="16.4"/><circle cx="785" cy="76" r="13.3"/><circle cx="835" cy="76" r="10.5"/><circle cx="304" cy="127" r="1.9"/><circle cx="354" cy="127" r="3.3"/><circle cx="405" cy="127" r="4.7"/><circle cx="456" cy="127" r="6.1"/><circle cx="506" cy="127" r="7.3"/><circle cx="557" cy="127" r="8.6"/><circle cx="608" cy="127" r="10.1"/><circle cx="658" cy="127" r="11.9"/><circle cx="709" cy="127" r="12.2"/><circle cx="759" cy="127" r="10.9"/><circle cx="810" cy="127" r="9.6"/><circle cx="278" cy="177" r="2.0"/><circle cx="329" cy="177" r="3.1"/><circle cx="380" cy="177" r="4.6"/><circle cx="430" cy="177" r="6.3"/><circle cx="481" cy="177" r="8.5"/><circle cx="532" cy="177" r="11.0"/><circle cx="582" cy="177" r="13.9"/><circle cx="633" cy="177" r="16.9"/><circle cx="683" cy="177" r="14.7"/><circle cx="734" cy="177" r="12.3"/><circle cx="785" cy="177" r="9.8"/><circle cx="835" cy="177" r="7.4"/><circle cx="202" cy="228" r="1.8"/><circle cx="253" cy="228" r="3.3"/><circle cx="304" cy="228" r="5.1"/><circle cx="354" cy="228" r="7.0"/><circle cx="405" cy="228" r="8.9"/><circle cx="456" cy="228" r="10.6"/><circle cx="506" cy="228" r="12.0"/><circle cx="557" cy="228" r="13.3"/><circle cx="608" cy="228" r="12.5"/><circle cx="658" cy="228" r="10.2"/><circle cx="709" cy="228" r="8.3"/><circle cx="759" cy="228" r="6.8"/><circle cx="810" cy="228" r="5.5"/><circle cx="127" cy="278" r="1.2"/><circle cx="177" cy="278" r="2.4"/><circle cx="228" cy="278" r="3.6"/><circle cx="278" cy="278" r="4.8"/><circle cx="329" cy="278" r="6.1"/><circle cx="380" cy="278" r="7.5"/><circle cx="430" cy="278" r="9.2"/><circle cx="481" cy="278" r="11.4"/><circle cx="532" cy="278" r="14.0"/><circle cx="582" cy="278" r="12.8"/><circle cx="633" cy="278" r="11.4"/><circle cx="683" cy="278" r="9.8"/><circle cx="734" cy="278" r="8.0"/><circle cx="785" cy="278" r="6.1"/><circle cx="835" cy="278" r="4.2"/><circle cx="101" cy="329" r="1.5"/><circle cx="152" cy="329" r="2.7"/><circle cx="202" cy="329" r="4.4"/><circle cx="253" cy="329" r="6.4"/><circle cx="304" cy="329" r="8.6"/><circle cx="354" cy="329" r="11.1"/><circle cx="405" cy="329" r="13.6"/><circle cx="456" cy="329" r="15.8"/><circle cx="506" cy="329" r="15.3"/><circle cx="557" cy="329" r="12.4"/><circle cx="608" cy="329" r="9.6"/><circle cx="658" cy="329" r="7.3"/><circle cx="709" cy="329" r="5.4"/><circle cx="759" cy="329" r="3.8"/><circle cx="810" cy="329" r="2.5"/><circle cx="25" cy="380" r="1.3"/><circle cx="76" cy="380" r="2.7"/><circle cx="127" cy="380" r="4.2"/><circle cx="177" cy="380" r="5.9"/><circle cx="228" cy="380" r="7.4"/><circle cx="278" cy="380" r="8.9"/><circle cx="329" cy="380" r="10.2"/><circle cx="380" cy="380" r="11.4"/><circle cx="430" cy="380" r="12.9"/><circle cx="481" cy="380" r="10.9"/><circle cx="532" cy="380" r="9.4"/><circle cx="582" cy="380" r="8.0"/><circle cx="633" cy="380" r="6.8"/><circle cx="683" cy="380" r="5.4"/><circle cx="734" cy="380" r="4.0"/><circle cx="785" cy="380" r="2.6"/><circle cx="835" cy="380" r="1.3"/><circle cx="0" cy="430" r="1.5"/><circle cx="51" cy="430" r="2.6"/><circle cx="101" cy="430" r="3.8"/><circle cx="152" cy="430" r="5.3"/><circle cx="202" cy="430" r="7.1"/><circle cx="253" cy="430" r="9.3"/><circle cx="304" cy="430" r="11.9"/><circle cx="354" cy="430" r="14.9"/><circle cx="405" cy="430" r="15.6"/><circle cx="456" cy="430" r="13.5"/><circle cx="506" cy="430" r="11.2"/><circle cx="557" cy="430" r="8.8"/><circle cx="608" cy="430" r="6.6"/><circle cx="658" cy="430" r="4.5"/><circle cx="709" cy="430" r="2.8"/><circle cx="759" cy="430" r="1.5"/><circle cx="25" cy="481" r="3.9"/><circle cx="76" cy="481" r="5.8"/><circle cx="127" cy="481" r="8.0"/><circle cx="177" cy="481" r="10.1"/><circle cx="228" cy="481" r="12.2"/><circle cx="278" cy="481" r="14.0"/><circle cx="329" cy="481" r="15.5"/><circle cx="380" cy="481" r="12.4"/><circle cx="430" cy="481" r="9.8"/><circle cx="481" cy="481" r="7.7"/><circle cx="532" cy="481" r="5.9"/><circle cx="582" cy="481" r="4.5"/><circle cx="633" cy="481" r="3.3"/><circle cx="683" cy="481" r="2.2"/><circle cx="0" cy="532" r="4.4"/><circle cx="51" cy="532" r="5.7"/><circle cx="101" cy="532" r="6.9"/><circle cx="152" cy="532" r="8.4"/><circle cx="202" cy="532" r="10.1"/><circle cx="253" cy="532" r="12.2"/><circle cx="304" cy="532" r="12.9"/><circle cx="354" cy="532" r="11.6"/><circle cx="405" cy="532" r="10.2"/><circle cx="456" cy="532" r="8.7"/><circle cx="506" cy="532" r="6.9"/><circle cx="557" cy="532" r="5.1"/><circle cx="608" cy="532" r="3.4"/><circle cx="658" cy="532" r="1.9"/><circle cx="25" cy="582" r="6.7"/><circle cx="76" cy="582" r="9.1"/><circle cx="127" cy="582" r="11.7"/><circle cx="177" cy="582" r="14.5"/><circle cx="228" cy="582" r="17.2"/><circle cx="278" cy="582" r="14.7"/><circle cx="329" cy="582" r="12.0"/><circle cx="380" cy="582" r="9.3"/><circle cx="430" cy="582" r="7.0"/><circle cx="481" cy="582" r="4.9"/><circle cx="532" cy="582" r="3.3"/><circle cx="582" cy="582" r="2.0"/><circle cx="0" cy="633" r="8.5"/><circle cx="51" cy="633" r="10.0"/><circle cx="101" cy="633" r="11.3"/><circle cx="152" cy="633" r="12.5"/><circle cx="202" cy="633" r="12.0"/><circle cx="253" cy="633" r="10.0"/><circle cx="304" cy="633" r="8.4"/><circle cx="354" cy="633" r="7.1"/><circle cx="405" cy="633" r="5.8"/><circle cx="456" cy="633" r="4.6"/><circle cx="506" cy="633" r="3.2"/><circle cx="557" cy="633" r="1.9"/><circle cx="25" cy="683" r="9.6"/><circle cx="76" cy="683" r="12.0"/><circle cx="127" cy="683" r="15.0"/><circle cx="177" cy="683" r="13.6"/><circle cx="228" cy="683" r="12.0"/><circle cx="278" cy="683" r="10.1"/><circle cx="329" cy="683" r="8.0"/><circle cx="380" cy="683" r="5.9"/><circle cx="430" cy="683" r="4.0"/><circle cx="481" cy="683" r="2.4"/><circle cx="0" cy="734" r="13.4"/><circle cx="51" cy="734" r="15.3"/><circle cx="101" cy="734" r="14.5"/><circle cx="152" cy="734" r="11.6"/><circle cx="202" cy="734" r="9.0"/><circle cx="253" cy="734" r="6.9"/><circle cx="304" cy="734" r="5.2"/><circle cx="354" cy="734" r="3.8"/><circle cx="405" cy="734" r="2.6"/><circle cx="456" cy="734" r="1.6"/><circle cx="25" cy="785" r="12.8"/><circle cx="76" cy="785" r="11.2"/><circle cx="127" cy="785" r="9.8"/><circle cx="177" cy="785" r="8.6"/><circle cx="228" cy="785" r="7.2"/><circle cx="278" cy="785" r="5.8"/><circle cx="329" cy="785" r="4.2"/><circle cx="380" cy="785" r="2.7"/><circle cx="430" cy="785" r="1.3"/></g></svg>